<svg width="400" height="400" viewBox="0 0 400 400" fill="none" xmlns="http://www.w3.org/2000/svg">
<circle cx="200" cy="200" r="200" fill="#545BFE"/>
<mask id="mask0_49_5" style="mask-type:alpha" maskUnits="userSpaceOnUse" x="0" y="0" width="400" height="400">
<circle cx="200" cy="200" r="200" fill="white"/>
</mask>
<g mask="url(#mask0_49_5)">
<path fill-rule="evenodd" clip-rule="evenodd" d="M167.111 24C167.111 18.109 162.335 13.3334 156.444 13.3334H-25.7778C-31.6688 13.3334 -36.4445 18.109 -36.4445 24C-36.4445 29.8911 -31.6688 34.6667 -25.7778 34.6667H16.8889C22.7799 34.6667 27.5555 39.4423 27.5555 45.3334C27.5555 51.2244 22.7799 56 16.8889 56H11.5555C5.66451 56 0.888874 60.7757 0.888874 66.6667C0.888874 72.5577 5.66451 77.3334 11.5555 77.3334H7.99999C13.891 77.3334 18.6667 82.109 18.6667 88C18.6667 93.8911 13.891 98.6667 7.99999 98.6667H-0.888901C-6.77994 98.6667 -11.5556 103.442 -11.5556 109.333C-11.5556 115.224 -6.77994 120 -0.888901 120H104.889C110.78 120 115.556 115.224 115.556 109.333C115.556 103.442 110.78 98.6667 104.889 98.6667H100.444L100.444 98.6576C94.7596 98.4245 90.2225 93.7421 90.2225 88C90.2225 82.258 94.7596 77.5756 100.444 77.3425L100.444 77.3334H161.778C167.669 77.3334 172.444 72.5577 172.444 66.6667C172.444 60.7757 167.669 56 161.778 56H155.556L155.556 55.9909C149.871 55.7578 145.334 51.0755 145.334 45.3334C145.334 39.5913 149.871 34.9089 155.556 34.6758L155.556 34.6667H156.444C162.335 34.6667 167.111 29.8911 167.111 24ZM87.1111 141.333C93.0022 141.333 97.7778 146.109 97.7778 152C97.7778 157.891 93.0022 162.667 87.1111 162.667C81.2201 162.667 76.4445 157.891 76.4445 152C76.4445 146.109 81.2201 141.333 87.1111 141.333ZM54.2223 173.333C54.2223 167.442 49.4466 162.667 43.5556 162.667H12.4445C6.55346 162.667 1.77783 167.442 1.77783 173.333C1.77783 179.224 6.55346 184 12.4445 184H43.5556C49.4466 184 54.2223 179.224 54.2223 173.333ZM129.778 301.333C129.778 307.224 125.002 312 119.111 312H123.556C117.665 312 112.889 316.776 112.889 322.667C112.889 328.558 117.665 333.333 123.556 333.333H149.333C155.224 333.333 160 328.558 160 322.667C160 316.776 155.224 312 149.333 312H152.889V311.991C147.204 311.758 142.667 307.075 142.667 301.333C142.667 295.591 147.204 290.909 152.889 290.676V290.667H176.889C182.78 290.667 187.556 285.891 187.556 280C187.556 274.109 182.78 269.333 176.889 269.333L176.889 269.324C171.204 269.091 166.667 264.409 166.667 258.667C166.667 252.925 171.204 248.242 176.889 248.009L176.889 248H182.222C188.113 248 192.889 243.224 192.889 237.333C192.889 231.442 188.113 226.667 182.222 226.667H136.889V226.658C131.204 226.424 126.667 221.742 126.667 216C126.667 210.258 131.204 205.576 136.889 205.342V205.333H135.111C141.002 205.333 145.778 200.558 145.778 194.667C145.778 188.776 141.002 184 135.111 184H91.5556C85.6645 184 80.8889 188.776 80.8889 194.667C80.8889 200.558 85.6645 205.333 91.5556 205.333C97.4466 205.333 102.222 210.109 102.222 216C102.222 221.891 97.4466 226.667 91.5556 226.667C85.6645 226.667 80.8889 231.442 80.8889 237.333C80.8889 243.224 85.6645 248 91.5556 248H100.444C106.336 248 111.111 252.776 111.111 258.667C111.111 264.558 106.336 269.333 100.444 269.333H102.222C96.3312 269.333 91.5556 274.109 91.5556 280C91.5556 285.891 96.3312 290.667 102.222 290.667H119.111C125.002 290.667 129.778 295.442 129.778 301.333Z" fill="#4FCDF9"/>
</g>
<mask id="mask1_49_5" style="mask-type:alpha" maskUnits="userSpaceOnUse" x="0" y="0" width="400" height="400">
<circle cx="200" cy="200" r="200" fill="white"/>
</mask>
<g mask="url(#mask1_49_5)">
<path fill-rule="evenodd" clip-rule="evenodd" d="M375.111 45.3333C375.111 39.4423 370.335 34.6666 364.444 34.6666H343.111C337.22 34.6666 332.444 39.4423 332.444 45.3333C332.444 51.2243 337.22 56 343.111 56H364.444C370.335 56 375.111 51.2243 375.111 45.3333ZM586.667 56C592.558 56 597.333 60.7756 597.333 66.6667C597.333 72.5577 592.558 77.3333 586.667 77.3333H580.444V77.3424C574.76 77.5756 570.222 82.2579 570.222 88C570.222 93.7421 574.76 98.4244 580.444 98.6576V98.6667H594.667C600.558 98.6667 605.333 103.442 605.333 109.333C605.333 115.224 600.558 120 594.667 120H440C434.109 120 429.333 115.224 429.333 109.333C429.333 103.442 434.109 98.6667 440 98.6667H435.556C441.447 98.6667 446.222 93.891 446.222 88C446.222 82.109 441.447 77.3333 435.556 77.3333H399.111C393.22 77.3333 388.444 72.5577 388.444 66.6667C388.444 60.7756 393.22 56 399.111 56H586.667ZM346.667 290.667C352.558 290.667 357.333 285.891 357.333 280C357.333 274.109 352.558 269.333 346.667 269.333C340.776 269.333 336 264.558 336 258.667C336 252.776 340.776 248 346.667 248H344C349.891 248 354.667 243.224 354.667 237.333C354.667 231.442 349.891 226.667 344 226.667H304C298.109 226.667 293.333 221.891 293.333 216C293.333 210.109 298.109 205.333 304 205.333C309.891 205.333 314.667 200.558 314.667 194.667C314.667 188.776 309.891 184 304 184H273.778C267.887 184 263.111 179.224 263.111 173.333C263.111 167.442 267.887 162.667 273.778 162.667H296.889C302.78 162.667 307.556 157.891 307.556 152C307.556 146.109 302.78 141.333 296.889 141.333C290.998 141.333 286.222 136.558 286.222 130.667C286.222 124.776 290.998 120 296.889 120H346.667C352.558 120 357.333 124.776 357.333 130.667C357.333 136.558 352.558 141.333 346.667 141.333L346.666 141.342C340.981 141.576 336.445 146.258 336.445 152C336.445 157.742 340.981 162.424 346.666 162.658L346.667 162.667H427.556C433.447 162.667 438.222 167.442 438.222 173.333C438.222 179.224 433.447 184 427.556 184H409.778L409.778 184.009C404.093 184.242 399.556 188.925 399.556 194.667C399.556 200.409 404.093 205.091 409.778 205.324L409.778 205.333H418.667C424.558 205.333 429.333 210.109 429.333 216C429.333 221.891 424.558 226.667 418.667 226.667H405.333L405.332 226.676C399.648 226.909 395.111 231.592 395.111 237.333C395.111 243.075 399.648 247.757 405.332 247.991L405.333 248H403.556C409.447 248 414.222 252.776 414.222 258.667C414.222 264.558 409.447 269.333 403.556 269.333H385.778L385.778 269.342C380.093 269.576 375.556 274.258 375.556 280C375.556 285.742 380.093 290.424 385.778 290.658L385.778 290.667H382.222C388.113 290.667 392.889 295.442 392.889 301.333C392.889 307.224 388.113 312 382.222 312H350.222C344.331 312 339.556 307.224 339.556 301.333C339.556 295.442 344.331 290.667 350.222 290.667H346.667ZM426.667 269.333C432.558 269.333 437.333 274.109 437.333 280C437.333 285.891 432.558 290.667 426.667 290.667C420.776 290.667 416 285.891 416 280C416 274.109 420.776 269.333 426.667 269.333ZM421.333 130.667C421.333 124.776 416.558 120 410.667 120H398.222C392.331 120 387.556 124.776 387.556 130.667C387.556 136.558 392.331 141.333 398.222 141.333H410.667C416.558 141.333 421.333 136.558 421.333 130.667ZM329.778 88C329.778 82.109 325.002 77.3333 319.111 77.3333H297.778C291.887 77.3333 287.111 82.109 287.111 88C287.111 93.891 291.887 98.6667 297.778 98.6667H319.111C325.002 98.6667 329.778 93.891 329.778 88ZM352.889 77.3333C358.78 77.3333 363.556 82.109 363.556 88C363.556 93.891 358.78 98.6667 352.889 98.6667H350.222C344.331 98.6667 339.556 93.891 339.556 88C339.556 82.109 344.331 77.3333 350.222 77.3333H352.889Z" fill="#4FCDF9"/>
</g>
<mask id="mask2_49_5" style="mask-type:alpha" maskUnits="userSpaceOnUse" x="0" y="0" width="400" height="400">
<circle cx="200" cy="200" r="200" fill="white"/>
</mask>
<g mask="url(#mask2_49_5)">
<path fill-rule="evenodd" clip-rule="evenodd" d="M272.889 45.3333C272.889 39.4423 268.113 34.6666 262.222 34.6666H155.556C149.665 34.6666 144.889 29.891 144.889 24C144.889 18.1089 149.665 13.3333 155.556 13.3333H199.111C205.002 13.3333 209.778 8.55766 209.778 2.66663C209.778 -3.22441 205.002 -8.00004 199.111 -8.00004H184.889C178.998 -8.00004 174.222 -12.7757 174.222 -18.6667C174.222 -24.5577 178.998 -29.3334 184.889 -29.3334H240C245.891 -29.3334 250.667 -24.5577 250.667 -18.6667C250.667 -12.7757 245.891 -8.00004 240 -8.00004H241.778L241.778 -7.99096C236.093 -7.75813 231.556 -3.07564 231.556 2.66663C231.556 8.4089 236.093 13.0914 241.778 13.3242L241.778 13.3333H384C389.891 13.3333 394.667 18.1089 394.667 24C394.667 29.891 389.891 34.6666 384 34.6666H323.556L323.555 34.6758C317.87 34.9093 313.334 39.5915 313.334 45.3333C313.334 51.0751 317.87 55.7573 323.555 55.9908L323.556 56H326.222C332.113 56 336.889 60.7756 336.889 66.6666C336.889 72.5577 332.113 77.3333 326.222 77.3333H258.667C252.776 77.3333 248 72.5577 248 66.6666C248 60.7756 252.776 56 258.667 56H262.222C268.113 56 272.889 51.2243 272.889 45.3333ZM367.111 98.6667C373.002 98.6667 377.778 103.442 377.778 109.333C377.778 115.224 373.002 120 367.111 120H312C306.109 120 301.333 115.224 301.333 109.333C301.333 103.442 306.109 98.6667 312 98.6667H367.111ZM397.333 66.6667C397.333 60.7756 392.558 56 386.667 56H368.889C362.998 56 358.222 60.7756 358.222 66.6667C358.222 72.5577 362.998 77.3333 368.889 77.3333H386.667C392.558 77.3333 397.333 72.5577 397.333 66.6667ZM216 56C221.891 56 226.667 60.7756 226.667 66.6667C226.667 72.5577 221.891 77.3333 216 77.3333H198.222C192.331 77.3333 187.556 72.5577 187.556 66.6667C187.556 60.7756 192.331 56 198.222 56H216ZM432 -18.6667C432 -24.5577 427.224 -29.3334 421.333 -29.3334H282.667C276.776 -29.3334 272 -24.5577 272 -18.6667C272 -12.7757 276.776 -8.00004 282.667 -8.00004H421.333C427.224 -8.00004 432 -12.7757 432 -18.6667Z" fill="white"/>
</g>
<mask id="mask3_49_5" style="mask-type:alpha" maskUnits="userSpaceOnUse" x="0" y="0" width="400" height="400">
<circle cx="200" cy="200" r="200" fill="white"/>
</mask>
<g mask="url(#mask3_49_5)">
<path fill-rule="evenodd" clip-rule="evenodd" d="M75.5556 312C81.4466 312 86.2222 316.776 86.2222 322.667C86.2222 328.558 81.4466 333.333 75.5556 333.333H72C66.109 333.333 61.3333 338.109 61.3333 344C61.3333 349.891 66.109 354.667 72 354.667H139.556C145.447 354.667 150.222 349.891 150.222 344C150.222 338.109 145.447 333.333 139.556 333.333H136.889L136.888 333.324C131.204 333.091 126.667 328.408 126.667 322.667C126.667 316.925 131.204 312.243 136.888 312.009L136.889 312H160C165.891 312 170.667 307.224 170.667 301.333C170.667 295.442 165.891 290.667 160 290.667H147.556L147.556 290.658C141.871 290.425 137.333 285.742 137.333 280C137.333 274.258 141.871 269.575 147.556 269.342L147.556 269.333H189.333C195.224 269.333 200 264.558 200 258.667C200 252.776 195.224 248 189.333 248H84.4445C78.5534 248 73.7778 252.776 73.7778 258.667C73.7778 264.558 78.5534 269.333 84.4445 269.333H104.889C110.78 269.333 115.556 274.109 115.556 280C115.556 285.891 110.78 290.667 104.889 290.667H15.1111C9.22009 290.667 4.44446 295.442 4.44446 301.333C4.44446 307.224 9.22009 312 15.1111 312H75.5556ZM231.111 301.333C231.111 295.442 226.335 290.667 220.444 290.667H202.667C196.776 290.667 192 295.442 192 301.333C192 307.224 196.776 312 202.667 312H220.444C226.335 312 231.111 307.224 231.111 301.333Z" fill="white"/>
</g>
<mask id="mask4_49_5" style="mask-type:alpha" maskUnits="userSpaceOnUse" x="0" y="0" width="400" height="400">
<circle cx="200" cy="200" r="200" fill="white"/>
</mask>
<g mask="url(#mask4_49_5)">
<path fill-rule="evenodd" clip-rule="evenodd" d="M299.556 397.333C305.447 397.333 310.222 402.109 310.222 408C310.222 413.891 305.447 418.667 299.556 418.667H296C290.109 418.667 285.333 423.442 285.333 429.333C285.333 435.224 290.109 440 296 440H363.556C369.447 440 374.222 435.224 374.222 429.333C374.222 423.442 369.447 418.667 363.556 418.667H360.889L360.888 418.658C355.204 418.424 350.667 413.742 350.667 408C350.667 402.258 355.204 397.576 360.888 397.343L360.889 397.333H384C389.891 397.333 394.667 392.558 394.667 386.667C394.667 380.776 389.891 376 384 376H371.556L371.556 375.991C365.871 375.758 361.333 371.076 361.333 365.333C361.333 359.591 365.871 354.909 371.556 354.676L371.556 354.667H413.333C419.224 354.667 424 349.891 424 344C424 338.109 419.224 333.333 413.333 333.333H308.444C302.553 333.333 297.778 338.109 297.778 344C297.778 349.891 302.553 354.667 308.444 354.667H328.889C334.78 354.667 339.556 359.442 339.556 365.333C339.556 371.224 334.78 376 328.889 376H239.111C233.22 376 228.444 380.776 228.444 386.667C228.444 392.558 233.22 397.333 239.111 397.333H299.556ZM455.111 386.667C455.111 380.776 450.335 376 444.444 376H426.667C420.776 376 416 380.776 416 386.667C416 392.558 420.776 397.333 426.667 397.333H444.444C450.335 397.333 455.111 392.558 455.111 386.667Z" fill="white"/>
</g>
<mask id="mask5_49_5" style="mask-type:alpha" maskUnits="userSpaceOnUse" x="0" y="0" width="400" height="400">
<circle cx="200" cy="200" r="200" fill="white"/>
</mask>
<g mask="url(#mask5_49_5)">
<rect opacity="0.0775757" x="200.43" y="-22.2222" width="222.652" height="444.444" fill="black"/>
</g>
<path fill-rule="evenodd" clip-rule="evenodd" d="M200 393.778C307.021 393.778 393.778 307.02 393.778 200C393.778 92.9794 307.021 6.22217 200 6.22217V393.778Z" fill="#2A2D80"/>
<mask id="mask6_49_5" style="mask-type:alpha" maskUnits="userSpaceOnUse" x="200" y="6" width="194" height="388">
<path fill-rule="evenodd" clip-rule="evenodd" d="M200 393.778C307.021 393.778 393.778 307.02 393.778 200C393.778 92.9794 307.021 6.22217 200 6.22217V393.778Z" fill="white"/>
</mask>
<g mask="url(#mask6_49_5)">
<circle cx="201.333" cy="201.333" r="185.333" fill="#952525"/>
<circle cx="201.778" cy="200" r="158.222" fill="#E0592F"/>
<circle cx="201.778" cy="200" r="95.1111" fill="#F89035"/>
<circle cx="200.889" cy="200.889" r="45.3333" fill="#FFF1AA"/>
</g>
</svg>
