<svg width="400" height="400" viewBox="0 0 400 400" fill="none" xmlns="http://www.w3.org/2000/svg">
<circle cx="200" cy="200" r="200" fill="#ECAD7A"/>
<mask id="mask0_49_7" style="mask-type:alpha" maskUnits="userSpaceOnUse" x="0" y="0" width="400" height="400">
<circle cx="200" cy="200" r="200" fill="white"/>
</mask>
<g mask="url(#mask0_49_7)">
<path fill-rule="evenodd" clip-rule="evenodd" d="M26.1169 202.062C30.6718 202.062 34.3643 205.754 34.3643 210.309C34.3643 214.864 30.6718 218.557 26.1169 218.557H-81.0996C-85.6545 218.557 -89.347 214.864 -89.347 210.309C-89.347 205.754 -85.6545 202.062 -81.0996 202.062H26.1169ZM177.32 202.062C181.875 202.062 185.567 205.754 185.567 210.309C185.567 214.864 181.875 218.557 177.32 218.557H123.711L123.712 218.564C119.316 218.744 115.808 222.364 115.808 226.804C115.808 231.244 119.316 234.865 123.712 235.045L123.711 235.052H233.677C238.232 235.052 241.924 238.744 241.924 243.299C241.924 247.854 238.232 251.546 233.677 251.546H57.0447C52.4897 251.546 48.7973 247.854 48.7973 243.299C48.7973 238.744 52.4897 235.052 57.0447 235.052H90.7216C95.2766 235.052 98.9691 231.359 98.9691 226.804C98.9691 222.249 95.2766 218.557 90.7216 218.557H70.1031C65.5482 218.557 61.8557 214.864 61.8557 210.309C61.8557 205.754 65.5482 202.062 70.1031 202.062H177.32ZM36.4261 268.041C40.981 268.041 44.6735 271.734 44.6735 276.289C44.6735 280.844 40.981 284.536 36.4261 284.536H-13.7457C-18.3007 284.536 -21.9932 280.844 -21.9932 276.289C-21.9932 271.734 -18.3007 268.041 -13.7457 268.041H36.4261ZM233.677 268.041C238.232 268.041 241.924 271.734 241.924 276.289C241.924 280.844 238.232 284.536 233.677 284.536H183.505C178.95 284.536 175.258 280.844 175.258 276.289C175.258 271.734 178.95 268.041 183.505 268.041H233.677ZM415.12 276.289C415.12 271.734 411.428 268.041 406.873 268.041H292.784C288.229 268.041 284.536 271.734 284.536 276.289C284.536 280.844 288.229 284.536 292.784 284.536H406.873C411.428 284.536 415.12 280.844 415.12 276.289ZM284.536 218.557C289.091 218.557 292.784 222.249 292.784 226.804C292.784 231.359 289.091 235.052 284.536 235.052H278.351C273.796 235.052 270.103 238.744 270.103 243.299C270.103 247.854 273.796 251.546 278.351 251.546H454.983C459.538 251.546 463.23 247.854 463.23 243.299C463.23 238.744 459.538 235.052 454.983 235.052H317.526L317.526 235.045C313.13 234.865 309.622 231.244 309.622 226.804C309.622 222.364 313.13 218.744 317.526 218.564L317.526 218.557H334.021C338.576 218.557 342.268 214.864 342.268 210.309C342.268 205.754 338.576 202.062 334.021 202.062H226.804C222.249 202.062 218.557 205.754 218.557 210.309C218.557 214.864 222.249 218.557 226.804 218.557H284.536ZM489.347 210.309C489.347 205.754 485.655 202.062 481.1 202.062H373.883C369.328 202.062 365.636 205.754 365.636 210.309C365.636 214.864 369.328 218.557 373.883 218.557H481.1C485.655 218.557 489.347 214.864 489.347 210.309Z" fill="#F0D29F"/>
</g>
<mask id="mask1_49_7" style="mask-type:alpha" maskUnits="userSpaceOnUse" x="0" y="0" width="400" height="400">
<circle cx="200" cy="200" r="200" fill="white"/>
</mask>
<g mask="url(#mask1_49_7)">
<path d="M109.278 276.289C109.278 271.734 105.586 268.041 101.031 268.041H81.0997C76.5448 268.041 72.8523 264.349 72.8523 259.794C72.8523 255.239 76.5448 251.546 81.0997 251.546H150.516C155.07 251.546 158.763 255.239 158.763 259.794C158.763 264.349 155.07 268.041 150.516 268.041H148.454L148.453 268.048C144.058 268.229 140.55 271.849 140.55 276.289C140.55 280.728 144.058 284.348 148.453 284.529L148.454 284.536H150.516C155.07 284.536 158.763 288.229 158.763 292.783C158.763 297.338 155.07 301.031 150.516 301.031H98.2818C93.7269 301.031 90.0344 297.338 90.0344 292.783C90.0344 288.229 93.7269 284.536 98.2818 284.536H101.031C105.586 284.536 109.278 280.844 109.278 276.289Z" fill="#D86534"/>
</g>
<mask id="mask2_49_7" style="mask-type:alpha" maskUnits="userSpaceOnUse" x="0" y="0" width="400" height="400">
<circle cx="200" cy="200" r="200" fill="white"/>
</mask>
<g mask="url(#mask2_49_7)">
<path fill-rule="evenodd" clip-rule="evenodd" d="M320.275 37.1134C315.72 37.1134 312.027 40.8059 312.027 45.3608C312.027 49.9158 315.72 53.6082 320.275 53.6082H427.491C432.046 53.6082 435.739 49.9158 435.739 45.3608C435.739 40.8059 432.046 37.1134 427.491 37.1134H320.275ZM169.072 37.1134C164.517 37.1134 160.825 40.8059 160.825 45.3608C160.825 49.9158 164.517 53.6082 169.072 53.6082H222.68L222.68 53.6153C227.076 53.7953 230.584 57.4158 230.584 61.8557C230.584 66.2956 227.076 69.916 222.68 70.0961L222.68 70.1031H112.715C108.16 70.1031 104.467 73.7956 104.467 78.3505C104.467 82.9054 108.16 86.5979 112.715 86.5979H289.347C293.902 86.5979 297.594 82.9054 297.594 78.3505C297.594 73.7956 293.902 70.1031 289.347 70.1031H255.67C251.115 70.1031 247.423 66.4106 247.423 61.8557C247.423 57.3007 251.115 53.6082 255.67 53.6082H276.289C280.844 53.6082 284.536 49.9158 284.536 45.3608C284.536 40.8059 280.844 37.1134 276.289 37.1134H169.072ZM309.966 103.093C305.411 103.093 301.718 106.785 301.718 111.34C301.718 115.895 305.411 119.588 309.966 119.588H360.137C364.692 119.588 368.385 115.895 368.385 111.34C368.385 106.785 364.692 103.093 360.137 103.093H309.966ZM112.715 103.093C108.16 103.093 104.467 106.785 104.467 111.34C104.467 115.895 108.16 119.588 112.715 119.588H162.887C167.442 119.588 171.134 115.895 171.134 111.34C171.134 106.785 167.442 103.093 162.887 103.093H112.715ZM-68.7285 111.34C-68.7285 106.785 -65.036 103.093 -60.481 103.093H53.6083C58.1632 103.093 61.8557 106.785 61.8557 111.34C61.8557 115.895 58.1632 119.588 53.6083 119.588H-60.481C-65.036 119.588 -68.7285 115.895 -68.7285 111.34ZM61.8557 53.6082C57.3008 53.6082 53.6082 57.3007 53.6082 61.8557C53.6082 66.4106 57.3008 70.1031 61.8557 70.1031H68.0412C72.5962 70.1031 76.2887 73.7956 76.2887 78.3505C76.2887 82.9054 72.5962 86.5979 68.0412 86.5979H-108.591C-113.146 86.5979 -116.839 82.9054 -116.839 78.3505C-116.839 73.7956 -113.146 70.1031 -108.591 70.1031H28.866L28.8657 70.0961C33.2614 69.916 36.7697 66.2956 36.7697 61.8557C36.7697 57.4158 33.2614 53.7953 28.8657 53.6153L28.866 53.6082H12.3711C7.81619 53.6082 4.12372 49.9158 4.12372 45.3608C4.12372 40.8059 7.81619 37.1134 12.3711 37.1134H119.588C124.143 37.1134 127.835 40.8059 127.835 45.3608C127.835 49.9158 124.143 53.6082 119.588 53.6082H61.8557ZM-142.955 45.3608C-142.955 40.8059 -139.263 37.1134 -134.708 37.1134H-27.4914C-22.9365 37.1134 -19.244 40.8059 -19.244 45.3608C-19.244 49.9158 -22.9365 53.6082 -27.4914 53.6082H-134.708C-139.263 53.6082 -142.955 49.9158 -142.955 45.3608Z" fill="#DC8E61"/>
</g>
<mask id="mask3_49_7" style="mask-type:alpha" maskUnits="userSpaceOnUse" x="0" y="0" width="400" height="400">
<circle cx="200" cy="200" r="200" fill="white"/>
</mask>
<g mask="url(#mask3_49_7)">
<path fill-rule="evenodd" clip-rule="evenodd" d="M428.866 301.031C424.311 301.031 420.618 304.723 420.618 309.278C420.618 313.833 424.311 317.526 428.866 317.526H536.082C540.637 317.526 544.33 313.833 544.33 309.278C544.33 304.723 540.637 301.031 536.082 301.031H428.866ZM277.663 301.031C273.108 301.031 269.416 304.723 269.416 309.278C269.416 313.833 273.108 317.526 277.663 317.526H331.271L331.271 317.533C335.667 317.713 339.175 321.333 339.175 325.773C339.175 330.213 335.667 333.834 331.271 334.014L331.271 334.021H221.306C216.751 334.021 213.058 337.713 213.058 342.268C213.058 346.823 216.751 350.515 221.306 350.515H397.938C402.493 350.515 406.186 346.823 406.186 342.268C406.186 337.713 402.493 334.021 397.938 334.021H364.261C359.706 334.021 356.014 330.328 356.014 325.773C356.014 321.218 359.706 317.526 364.261 317.526H384.88C389.435 317.526 393.127 313.833 393.127 309.278C393.127 304.723 389.435 301.031 384.88 301.031H277.663ZM418.557 367.01C414.002 367.01 410.309 370.703 410.309 375.258C410.309 379.813 414.002 383.505 418.557 383.505H468.728C473.283 383.505 476.976 379.813 476.976 375.258C476.976 370.703 473.283 367.01 468.728 367.01H418.557ZM221.306 367.01C216.751 367.01 213.058 370.703 213.058 375.258C213.058 379.813 216.751 383.505 221.306 383.505H271.478C276.033 383.505 279.725 379.813 279.725 375.258C279.725 370.703 276.033 367.01 271.478 367.01H221.306ZM39.8626 375.258C39.8626 370.703 43.5551 367.01 48.11 367.01H162.199C166.754 367.01 170.447 370.703 170.447 375.258C170.447 379.813 166.754 383.505 162.199 383.505H48.11C43.5551 383.505 39.8626 379.813 39.8626 375.258ZM170.447 317.526C165.892 317.526 162.199 321.218 162.199 325.773C162.199 330.328 165.892 334.021 170.447 334.021H176.632C181.187 334.021 184.88 337.713 184.88 342.268C184.88 346.823 181.187 350.515 176.632 350.515H0C-4.55493 350.515 -8.24744 346.823 -8.24744 342.268C-8.24744 337.713 -4.55493 334.021 0 334.021H137.457L137.457 334.014C141.852 333.834 145.361 330.213 145.361 325.773C145.361 321.333 141.852 317.713 137.457 317.533L137.457 317.526H120.962C116.407 317.526 112.715 313.833 112.715 309.278C112.715 304.723 116.407 301.031 120.962 301.031H228.179C232.734 301.031 236.426 304.723 236.426 309.278C236.426 313.833 232.734 317.526 228.179 317.526H170.447ZM-34.3643 309.278C-34.3643 304.723 -30.6718 301.031 -26.1168 301.031H81.0996C85.6546 301.031 89.3471 304.723 89.3471 309.278C89.3471 313.833 85.6546 317.526 81.0996 317.526H-26.1168C-30.6718 317.526 -34.3643 313.833 -34.3643 309.278Z" fill="#D89D6D"/>
</g>
<mask id="mask4_49_7" style="mask-type:alpha" maskUnits="userSpaceOnUse" x="0" y="0" width="400" height="400">
<circle cx="200" cy="200" r="200" fill="white"/>
</mask>
<g mask="url(#mask4_49_7)">
<path fill-rule="evenodd" clip-rule="evenodd" d="M121.649 152.577C126.204 152.577 129.897 156.27 129.897 160.825C129.897 165.38 126.204 169.072 121.649 169.072H114.777C110.222 169.072 106.529 172.765 106.529 177.32C106.529 181.875 110.222 185.567 114.777 185.567H175.945C180.5 185.567 184.192 181.875 184.192 177.32C184.192 172.765 180.5 169.072 175.945 169.072H169.072L169.071 169.065C164.676 168.885 161.169 165.264 161.169 160.825C161.169 156.385 164.676 152.765 169.071 152.584L169.072 152.577H213.746C218.301 152.577 221.993 148.885 221.993 144.33C221.993 139.775 218.301 136.083 213.746 136.083H76.9759C72.421 136.083 68.7285 139.775 68.7285 144.33C68.7285 148.885 72.421 152.577 76.9759 152.577H121.649ZM90.0344 177.32C90.0344 172.765 86.3419 169.072 81.787 169.072H39.1753C34.6204 169.072 30.9279 172.765 30.9279 177.32C30.9279 181.875 34.6204 185.567 39.1753 185.567H81.787C86.3419 185.567 90.0344 181.875 90.0344 177.32ZM6.18562 169.072C10.7405 169.072 14.433 172.765 14.433 177.32C14.433 181.875 10.7405 185.567 6.18562 185.567H-13.0584C-17.6133 185.567 -21.3058 181.875 -21.3058 177.32C-21.3058 172.765 -17.6133 169.072 -13.0584 169.072H6.18562ZM332.646 177.32C332.646 172.765 328.954 169.072 324.399 169.072H208.935C204.38 169.072 200.687 172.765 200.687 177.32C200.687 181.875 204.38 185.567 208.935 185.567H324.399C328.954 185.567 332.646 181.875 332.646 177.32ZM376.632 169.072C381.187 169.072 384.88 172.765 384.88 177.32C384.88 181.875 381.187 185.567 376.632 185.567H357.388C352.833 185.567 349.141 181.875 349.141 177.32C349.141 172.765 352.833 169.072 357.388 169.072H376.632ZM352.577 144.33C352.577 139.775 348.885 136.083 344.33 136.083H246.735C242.18 136.083 238.488 139.775 238.488 144.33C238.488 148.885 242.18 152.577 246.735 152.577H344.33C348.885 152.577 352.577 148.885 352.577 144.33ZM411.684 136.083C416.239 136.083 419.931 139.775 419.931 144.33C419.931 148.885 416.239 152.577 411.684 152.577H377.32C372.765 152.577 369.072 148.885 369.072 144.33C369.072 139.775 372.765 136.083 377.32 136.083H411.684ZM35.7388 144.33C35.7388 139.775 32.0463 136.083 27.4914 136.083H8.24742C3.6925 136.083 0 139.775 0 144.33C0 148.885 3.6925 152.577 8.24742 152.577H27.4914C32.0463 152.577 35.7388 148.885 35.7388 144.33Z" fill="#D89D6D"/>
</g>
<mask id="mask5_49_7" style="mask-type:alpha" maskUnits="userSpaceOnUse" x="0" y="0" width="400" height="400">
<circle cx="200" cy="200" r="200" fill="white"/>
</mask>
<g mask="url(#mask5_49_7)">
<rect opacity="0.0775757" x="200" width="200.687" height="400" fill="black"/>
</g>
<path fill-rule="evenodd" clip-rule="evenodd" d="M200 396.564C308.559 396.564 396.564 308.559 396.564 200C396.564 91.4409 308.559 3.4364 200 3.4364V396.564Z" fill="#A15C3E"/>
<mask id="mask6_49_7" style="mask-type:alpha" maskUnits="userSpaceOnUse" x="200" y="3" width="197" height="394">
<path fill-rule="evenodd" clip-rule="evenodd" d="M200 396.564C308.559 396.564 396.564 308.559 396.564 200C396.564 91.4409 308.559 3.4364 200 3.4364V396.564Z" fill="white"/>
</mask>
<g mask="url(#mask6_49_7)">
<circle cx="200.344" cy="200.344" r="185.223" fill="#F0D29F"/>
<circle cx="201.031" cy="200.344" r="146.048" fill="#E2BE81"/>
<circle cx="201.031" cy="200.344" r="128.866" fill="#D27140"/>
<circle cx="200" cy="200" r="28.866" fill="#565658"/>
</g>
<path fill-rule="evenodd" clip-rule="evenodd" d="M81.0997 251.546C76.5448 251.546 72.8523 255.239 72.8523 259.794C72.8523 264.349 76.5448 268.041 81.0997 268.041H150.516C155.07 268.041 158.763 264.349 158.763 259.794C158.763 255.239 155.07 251.546 150.516 251.546H81.0997ZM98.2818 284.536C93.7269 284.536 90.0344 288.229 90.0344 292.784C90.0344 297.338 93.7269 301.031 98.2818 301.031H150.516C155.07 301.031 158.763 297.338 158.763 292.784C158.763 288.229 155.07 284.536 150.516 284.536H98.2818Z" fill="#D86534"/>
</svg>
