<svg width="400" height="400" viewBox="0 0 400 400" fill="none" xmlns="http://www.w3.org/2000/svg">
<circle cx="200" cy="200" r="200" fill="#FF6A45"/>
<mask id="mask0_49_6" style="mask-type:alpha" maskUnits="userSpaceOnUse" x="0" y="0" width="400" height="400">
<circle cx="200" cy="200" r="200" fill="white"/>
</mask>
<g mask="url(#mask0_49_6)">
<path fill-rule="evenodd" clip-rule="evenodd" d="M107.143 28.5714C115.033 28.5714 121.429 34.9674 121.429 42.8571C121.429 50.7469 115.033 57.1429 107.143 57.1429H48.8095C40.9197 57.1429 34.5238 63.5388 34.5238 71.4286C34.5238 79.3184 40.9197 85.7143 48.8095 85.7143H200C207.89 85.7143 214.286 79.3184 214.286 71.4286C214.286 63.5388 207.89 57.1429 200 57.1429H184.524L184.523 57.1306C176.91 56.8178 170.834 50.547 170.834 42.8571C170.834 35.1673 176.91 28.8965 184.523 28.5837L184.524 28.5714H251.19C259.08 28.5714 265.476 22.1755 265.476 14.2857C265.476 6.39593 259.08 0 251.19 0H65.4762C57.5864 0 51.1905 6.39593 51.1905 14.2857C51.1905 22.1755 57.5864 28.5714 65.4762 28.5714H107.143ZM340.476 71.4286C340.476 63.5388 334.08 57.1429 326.19 57.1429H320.238C312.348 57.1429 305.952 63.5388 305.952 71.4286C305.952 79.3184 312.348 85.7143 320.238 85.7143H326.19C334.08 85.7143 340.476 79.3184 340.476 71.4286Z" fill="#FF9B6B"/>
</g>
<mask id="mask1_49_6" style="mask-type:alpha" maskUnits="userSpaceOnUse" x="0" y="0" width="400" height="400">
<circle cx="200" cy="200" r="200" fill="white"/>
</mask>
<g mask="url(#mask1_49_6)">
<path fill-rule="evenodd" clip-rule="evenodd" d="M234.524 371.429C242.414 371.429 248.81 377.825 248.81 385.714C248.81 393.604 242.414 400 234.524 400H176.19C168.301 400 161.905 406.396 161.905 414.286C161.905 422.176 168.301 428.571 176.19 428.571H327.381C335.271 428.571 341.667 422.176 341.667 414.286C341.667 406.396 335.271 400 327.381 400H311.905L311.904 399.988C304.291 399.675 298.215 393.404 298.215 385.714C298.215 378.024 304.291 371.754 311.904 371.441L311.905 371.429H378.571C386.461 371.429 392.857 365.033 392.857 357.143C392.857 349.253 386.461 342.857 378.571 342.857H192.857C184.967 342.857 178.571 349.253 178.571 357.143C178.571 365.033 184.967 371.429 192.857 371.429H234.524ZM467.857 414.286C467.857 406.396 461.461 400 453.571 400H447.619C439.729 400 433.333 406.396 433.333 414.286C433.333 422.175 439.729 428.571 447.619 428.571H453.571C461.461 428.571 467.857 422.175 467.857 414.286Z" fill="#FF9B6B"/>
</g>
<mask id="mask2_49_6" style="mask-type:alpha" maskUnits="userSpaceOnUse" x="0" y="0" width="400" height="400">
<circle cx="200" cy="200" r="200" fill="white"/>
</mask>
<g mask="url(#mask2_49_6)">
<path fill-rule="evenodd" clip-rule="evenodd" d="M165.476 85.7142C173.366 85.7142 179.762 92.1102 179.762 99.9999C179.762 107.89 173.366 114.286 165.476 114.286H117.857C109.967 114.286 103.571 107.89 103.571 99.9999C103.571 92.1102 109.967 85.7142 117.857 85.7142H165.476ZM313.095 200C320.985 200 327.381 206.396 327.381 214.286C327.381 222.175 320.985 228.571 313.095 228.571H133.333L133.332 228.584C125.719 228.896 119.643 235.167 119.643 242.857C119.643 250.547 125.719 256.818 133.332 257.131L133.333 257.143H155.952C163.842 257.143 170.238 263.539 170.238 271.429C170.238 279.318 163.842 285.714 155.952 285.714H13.0952C5.20546 285.714 -1.19047 279.318 -1.19047 271.429C-1.19047 263.539 5.20546 257.143 13.0952 257.143H51.1905C59.0803 257.143 65.4762 250.747 65.4762 242.857C65.4762 234.967 59.0803 228.571 51.1905 228.571H-25C-32.8898 228.571 -39.2857 222.175 -39.2857 214.286C-39.2857 206.396 -32.8898 200 -25 200H313.095ZM133.333 328.571C133.333 320.682 126.937 314.286 119.048 314.286H95.2381C87.3483 314.286 80.9524 320.682 80.9524 328.571C80.9524 336.461 87.3483 342.857 95.2381 342.857H119.048C126.937 342.857 133.333 336.461 133.333 328.571ZM272.619 328.571C272.619 320.682 266.223 314.286 258.333 314.286H184.524C176.634 314.286 170.238 320.682 170.238 328.571C170.238 336.461 176.634 342.857 184.524 342.857H258.333C266.223 342.857 272.619 336.461 272.619 328.571ZM265.476 271.429C265.476 263.539 259.08 257.143 251.19 257.143H227.381C219.491 257.143 213.095 263.539 213.095 271.429C213.095 279.318 219.491 285.714 227.381 285.714H251.19C259.08 285.714 265.476 279.318 265.476 271.429ZM428.571 99.9999C428.571 92.1102 422.176 85.7142 414.286 85.7142H366.667C358.777 85.7142 352.381 92.1102 352.381 99.9999C352.381 107.89 358.777 114.286 366.667 114.286H414.286C422.176 114.286 428.571 107.89 428.571 99.9999Z" fill="#D04237"/>
</g>
<mask id="mask3_49_6" style="mask-type:alpha" maskUnits="userSpaceOnUse" x="0" y="0" width="400" height="400">
<circle cx="200" cy="200" r="200" fill="white"/>
</mask>
<g mask="url(#mask3_49_6)">
<rect opacity="0.0775757" x="201.19" y="-19.0476" width="219.048" height="438.095" fill="black"/>
</g>
<path fill-rule="evenodd" clip-rule="evenodd" d="M201.19 391.667C307.045 391.667 392.857 305.855 392.857 200C392.857 94.1455 307.045 8.33337 201.19 8.33337V391.667Z" fill="#97271E"/>
<mask id="mask4_49_6" style="mask-type:alpha" maskUnits="userSpaceOnUse" x="201" y="8" width="192" height="384">
<path fill-rule="evenodd" clip-rule="evenodd" d="M201.19 391.667C307.045 391.667 392.857 305.855 392.857 200C392.857 94.1455 307.045 8.33337 201.19 8.33337V391.667Z" fill="white"/>
</mask>
<g mask="url(#mask4_49_6)">
<circle cx="202.381" cy="200" r="183.333" fill="#DC5D1C"/>
<circle cx="202.381" cy="200" r="94.0476" fill="#F8A053"/>
<circle cx="202.381" cy="200" r="64.2857" fill="#FFCA79"/>
<circle cx="202.381" cy="201.19" r="47.619" fill="#FFF5C6"/>
</g>
</svg>
