<svg width="400" height="400" viewBox="0 0 400 400" fill="none" xmlns="http://www.w3.org/2000/svg">
<circle cx="200" cy="200" r="200" fill="#DEF4FC"/>
<mask id="mask0_0_12771" style="mask-type:alpha" maskUnits="userSpaceOnUse" x="0" y="0" width="400" height="400">
<circle cx="200" cy="200" r="200" fill="white"/>
</mask>
<g mask="url(#mask0_0_12771)">
<path fill-rule="evenodd" clip-rule="evenodd" d="M354.483 34.4828C354.483 25.3415 347.072 17.931 337.931 17.931H257.931C248.79 17.931 241.379 25.3415 241.379 34.4828C241.379 43.624 248.79 51.0345 257.931 51.0345H337.931C347.072 51.0345 354.483 43.624 354.483 34.4828ZM100.69 183.448C109.831 183.448 117.242 190.859 117.242 200C117.242 209.141 109.831 216.552 100.69 216.552H96.5519C87.4106 216.552 80.0001 223.962 80.0001 233.103C80.0001 242.245 87.4106 249.655 96.5519 249.655H267.586C276.728 249.655 284.138 242.245 284.138 233.103C284.138 223.962 276.728 216.552 267.586 216.552H195.862L195.861 216.538C187.04 216.175 180.001 208.91 180.001 200C180.001 191.09 187.04 183.825 195.861 183.462L195.862 183.448H198.621C207.762 183.448 215.173 176.038 215.173 166.897C215.173 157.755 207.762 150.345 198.621 150.345H136.552L136.552 150.331C127.731 149.969 120.69 142.704 120.69 133.793C120.69 124.883 127.731 117.617 136.552 117.255L136.552 117.241H164.138C173.279 117.241 180.69 109.831 180.69 100.69C180.69 91.5484 173.279 84.1379 164.138 84.1379H63.4484C54.3071 84.1379 46.8967 91.5484 46.8967 100.69C46.8967 109.831 54.3071 117.241 63.4484 117.241H70.345C79.4862 117.241 86.8967 124.652 86.8967 133.793C86.8967 142.934 79.4862 150.345 70.345 150.345H2.75875C-6.38251 150.345 -13.793 157.755 -13.793 166.897C-13.793 176.038 -6.38251 183.448 2.75875 183.448H100.69ZM179.311 282.759C188.452 282.759 195.862 290.169 195.862 299.31C195.862 308.452 188.452 315.862 179.311 315.862C170.169 315.862 162.759 308.452 162.759 299.31C162.759 290.169 170.169 282.759 179.311 282.759ZM347.586 299.31C347.586 290.169 340.176 282.759 331.034 282.759H245.517C236.376 282.759 228.965 290.169 228.965 299.31C228.965 308.452 236.376 315.862 245.517 315.862H331.034C340.176 315.862 347.586 308.452 347.586 299.31ZM228.966 365.517C228.966 356.376 221.555 348.966 212.414 348.966H184.828C175.686 348.966 168.276 356.376 168.276 365.517C168.276 374.659 175.686 382.069 184.828 382.069H212.414C221.555 382.069 228.966 374.659 228.966 365.517ZM337.931 216.552C347.072 216.552 354.483 223.962 354.483 233.103C354.483 242.245 347.072 249.655 337.931 249.655C328.79 249.655 321.379 242.245 321.379 233.103C321.379 223.962 328.79 216.552 337.931 216.552ZM46.8967 233.103C46.8967 223.962 39.4862 216.552 30.345 216.552H2.75875C-6.38251 216.552 -13.793 223.962 -13.793 233.103C-13.793 242.245 -6.38251 249.655 2.75875 249.655H30.345C39.4862 249.655 46.8967 242.245 46.8967 233.103ZM304.827 84.1379C313.969 84.1379 321.379 91.5484 321.379 100.69C321.379 109.831 313.969 117.241 304.827 117.241H277.241C268.1 117.241 260.689 109.831 260.689 100.69C260.689 91.5484 268.1 84.1379 277.241 84.1379H304.827Z" fill="#B1D5E2"/>
</g>
<mask id="mask1_0_12771" style="mask-type:alpha" maskUnits="userSpaceOnUse" x="0" y="0" width="400" height="400">
<circle cx="200" cy="200" r="200" fill="white"/>
</mask>
<g mask="url(#mask1_0_12771)">
<rect opacity="0.0775757" x="201.379" width="200" height="400" fill="black"/>
</g>
</svg>
