<svg width="408" height="408" viewBox="0 0 408 408" fill="none" xmlns="http://www.w3.org/2000/svg">
<g filter="url(#filter0_d_0_5335)">
<circle cx="204" cy="200" r="200" fill="#497EFA"/>
<mask id="mask0_0_5335" style="mask-type:alpha" maskUnits="userSpaceOnUse" x="4" y="0" width="400" height="400">
<circle cx="204" cy="200" r="200" fill="white"/>
</mask>
<g mask="url(#mask0_0_5335)">
<path fill-rule="evenodd" clip-rule="evenodd" d="M17.491 147.556C23.3821 147.556 28.1577 152.331 28.1577 158.222C28.1577 164.113 23.3821 168.889 17.491 168.889H-121.176C-127.067 168.889 -131.842 164.113 -131.842 158.222C-131.842 152.331 -127.067 147.556 -121.176 147.556H17.491ZM213.046 147.556C218.937 147.556 223.713 152.331 223.713 158.222C223.713 164.113 218.937 168.889 213.046 168.889H143.713L143.713 168.898C138.028 169.131 133.491 173.813 133.491 179.556C133.491 185.298 138.028 189.98 143.713 190.213L143.713 190.222H285.935C291.826 190.222 296.602 194.998 296.602 200.889C296.602 206.78 291.826 211.556 285.935 211.556H57.4909C51.5999 211.556 46.8242 206.78 46.8242 200.889C46.8242 194.998 51.5999 190.222 57.4909 190.222H101.046C106.937 190.222 111.713 185.447 111.713 179.556C111.713 173.665 106.937 168.889 101.046 168.889H74.3798C68.4887 168.889 63.7131 164.113 63.7131 158.222C63.7131 152.331 68.4887 147.556 74.3798 147.556H213.046ZM30.8241 232.889C36.7151 232.889 41.4908 237.665 41.4908 243.556C41.4908 249.447 36.7151 254.222 30.8241 254.222H-34.0648C-39.9558 254.222 -44.7314 249.447 -44.7314 243.556C-44.7314 237.665 -39.9558 232.889 -34.0648 232.889H30.8241ZM285.935 232.889C291.826 232.889 296.602 237.665 296.602 243.556C296.602 249.447 291.826 254.222 285.935 254.222H221.047C215.156 254.222 210.38 249.447 210.38 243.556C210.38 237.665 215.156 232.889 221.047 232.889H285.935ZM520.602 243.556C520.602 237.665 515.826 232.889 509.935 232.889H362.38C356.489 232.889 351.713 237.665 351.713 243.556C351.713 249.447 356.489 254.222 362.38 254.222H509.935C515.826 254.222 520.602 249.447 520.602 243.556ZM351.713 168.889C357.604 168.889 362.38 173.665 362.38 179.556C362.38 185.447 357.604 190.222 351.713 190.222H343.713C337.822 190.222 333.046 194.998 333.046 200.889C333.046 206.78 337.822 211.556 343.713 211.556H572.158C578.049 211.556 582.824 206.78 582.824 200.889C582.824 194.998 578.049 190.222 572.158 190.222H394.38L394.38 190.213C388.695 189.98 384.158 185.298 384.158 179.556C384.158 173.813 388.695 169.131 394.38 168.898L394.38 168.889H415.713C421.604 168.889 426.38 164.113 426.38 158.222C426.38 152.331 421.604 147.556 415.713 147.556H277.046C271.155 147.556 266.38 152.331 266.38 158.222C266.38 164.113 271.155 168.889 277.046 168.889H351.713ZM616.602 158.222C616.602 152.331 611.826 147.556 605.935 147.556H467.269C461.378 147.556 456.602 152.331 456.602 158.222C456.602 164.113 461.378 168.889 467.269 168.889H605.935C611.826 168.889 616.602 164.113 616.602 158.222Z" fill="#356CEE"/>
</g>
<mask id="mask1_0_5335" style="mask-type:alpha" maskUnits="userSpaceOnUse" x="4" y="0" width="400" height="400">
<circle cx="204" cy="200" r="200" fill="white"/>
</mask>
<g mask="url(#mask1_0_5335)">
<path opacity="0.4" fill-rule="evenodd" clip-rule="evenodd" d="M17.491 19.5556C23.3821 19.5556 28.1577 24.3312 28.1577 30.2222C28.1577 36.1133 23.3821 40.8889 17.491 40.8889H-121.176C-127.067 40.8889 -131.842 36.1133 -131.842 30.2222C-131.842 24.3312 -127.067 19.5556 -121.176 19.5556H17.491ZM213.046 19.5556C218.937 19.5556 223.713 24.3312 223.713 30.2222C223.713 36.1133 218.937 40.8889 213.046 40.8889H143.713L143.713 40.898C138.028 41.1308 133.491 45.8133 133.491 51.5556C133.491 57.2978 138.028 61.9803 143.713 62.2131L143.713 62.2222H285.935C291.826 62.2222 296.602 66.9979 296.602 72.8889C296.602 78.7799 291.826 83.5556 285.935 83.5556H57.4909C51.5999 83.5556 46.8242 78.7799 46.8242 72.8889C46.8242 66.9979 51.5999 62.2222 57.4909 62.2222H101.046C106.937 62.2222 111.713 57.4466 111.713 51.5556C111.713 45.6645 106.937 40.8889 101.046 40.8889H74.3798C68.4887 40.8889 63.7131 36.1133 63.7131 30.2222C63.7131 24.3312 68.4887 19.5556 74.3798 19.5556H213.046ZM30.8241 104.889C36.7151 104.889 41.4908 109.665 41.4908 115.556C41.4908 121.447 36.7151 126.222 30.8241 126.222H-34.0648C-39.9558 126.222 -44.7314 121.447 -44.7314 115.556C-44.7314 109.665 -39.9558 104.889 -34.0648 104.889H30.8241ZM285.935 104.889C291.826 104.889 296.602 109.665 296.602 115.556C296.602 121.447 291.826 126.222 285.935 126.222H221.047C215.156 126.222 210.38 121.447 210.38 115.556C210.38 109.665 215.156 104.889 221.047 104.889H285.935ZM520.602 115.556C520.602 109.665 515.826 104.889 509.935 104.889H362.38C356.489 104.889 351.713 109.665 351.713 115.556C351.713 121.447 356.489 126.222 362.38 126.222H509.935C515.826 126.222 520.602 121.447 520.602 115.556ZM351.713 40.8889C357.604 40.8889 362.38 45.6645 362.38 51.5556C362.38 57.4466 357.604 62.2222 351.713 62.2222H343.713C337.822 62.2222 333.046 66.9979 333.046 72.8889C333.046 78.7799 337.822 83.5556 343.713 83.5556H572.158C578.049 83.5556 582.824 78.7799 582.824 72.8889C582.824 66.9979 578.049 62.2222 572.158 62.2222H394.38L394.38 62.2131C388.695 61.9803 384.158 57.2978 384.158 51.5556C384.158 45.8133 388.695 41.1308 394.38 40.898L394.38 40.8889H415.713C421.604 40.8889 426.38 36.1133 426.38 30.2222C426.38 24.3312 421.604 19.5556 415.713 19.5556H277.046C271.155 19.5556 266.38 24.3312 266.38 30.2222C266.38 36.1133 271.155 40.8889 277.046 40.8889H351.713ZM616.602 30.2222C616.602 24.3312 611.826 19.5556 605.935 19.5556H467.269C461.378 19.5556 456.602 24.3312 456.602 30.2222C456.602 36.1133 461.378 40.8889 467.269 40.8889H605.935C611.826 40.8889 616.602 36.1133 616.602 30.2222Z" fill="#356CEE"/>
</g>
<mask id="mask2_0_5335" style="mask-type:alpha" maskUnits="userSpaceOnUse" x="4" y="0" width="400" height="400">
<circle cx="204" cy="200" r="200" fill="white"/>
</mask>
<g mask="url(#mask2_0_5335)">
<path opacity="0.4" fill-rule="evenodd" clip-rule="evenodd" d="M17.491 296.889C23.3821 296.889 28.1577 301.665 28.1577 307.556C28.1577 313.447 23.3821 318.222 17.491 318.222H-121.176C-127.067 318.222 -131.842 313.447 -131.842 307.556C-131.842 301.665 -127.067 296.889 -121.176 296.889H17.491ZM213.046 296.889C218.937 296.889 223.713 301.665 223.713 307.556C223.713 313.447 218.937 318.222 213.046 318.222H143.713L143.713 318.231C138.028 318.464 133.491 323.147 133.491 328.889C133.491 334.631 138.028 339.314 143.713 339.546L143.713 339.556H285.935C291.826 339.556 296.602 344.331 296.602 350.222C296.602 356.113 291.826 360.889 285.935 360.889H57.4909C51.5999 360.889 46.8242 356.113 46.8242 350.222C46.8242 344.331 51.5999 339.556 57.4909 339.556H101.046C106.937 339.556 111.713 334.78 111.713 328.889C111.713 322.998 106.937 318.222 101.046 318.222H74.3798C68.4887 318.222 63.7131 313.447 63.7131 307.556C63.7131 301.665 68.4887 296.889 74.3798 296.889H213.046ZM30.8241 382.222C36.7151 382.222 41.4908 386.998 41.4908 392.889C41.4908 398.78 36.7151 403.556 30.8241 403.556H-34.0648C-39.9558 403.556 -44.7314 398.78 -44.7314 392.889C-44.7314 386.998 -39.9558 382.222 -34.0648 382.222H30.8241ZM285.935 382.222C291.826 382.222 296.602 386.998 296.602 392.889C296.602 398.78 291.826 403.556 285.935 403.556H221.047C215.156 403.556 210.38 398.78 210.38 392.889C210.38 386.998 215.156 382.222 221.047 382.222H285.935ZM520.602 392.889C520.602 386.998 515.826 382.222 509.935 382.222H362.38C356.489 382.222 351.713 386.998 351.713 392.889C351.713 398.78 356.489 403.556 362.38 403.556H509.935C515.826 403.556 520.602 398.78 520.602 392.889ZM351.713 318.222C357.604 318.222 362.38 322.998 362.38 328.889C362.38 334.78 357.604 339.556 351.713 339.556H343.713C337.822 339.556 333.046 344.331 333.046 350.222C333.046 356.113 337.822 360.889 343.713 360.889H572.158C578.049 360.889 582.824 356.113 582.824 350.222C582.824 344.331 578.049 339.556 572.158 339.556H394.38L394.38 339.546C388.695 339.314 384.158 334.631 384.158 328.889C384.158 323.147 388.695 318.464 394.38 318.231L394.38 318.222H415.713C421.604 318.222 426.38 313.447 426.38 307.556C426.38 301.665 421.604 296.889 415.713 296.889H277.046C271.155 296.889 266.38 301.665 266.38 307.556C266.38 313.447 271.155 318.222 277.046 318.222H351.713ZM616.602 307.556C616.602 301.665 611.826 296.889 605.935 296.889H467.269C461.378 296.889 456.602 301.665 456.602 307.556C456.602 313.447 461.378 318.222 467.269 318.222H605.935C611.826 318.222 616.602 313.447 616.602 307.556Z" fill="#356CEE"/>
</g>
<mask id="mask3_0_5335" style="mask-type:alpha" maskUnits="userSpaceOnUse" x="4" y="0" width="400" height="400">
<circle cx="204" cy="200" r="200" fill="white"/>
</mask>
<g mask="url(#mask3_0_5335)">
<path d="M135.713 243.556C135.713 237.665 130.937 232.889 125.046 232.889H108.157C102.266 232.889 97.4907 228.113 97.4907 222.222C97.4907 216.331 102.266 211.556 108.157 211.556H178.38C184.271 211.556 189.046 216.331 189.046 222.222C189.046 228.113 184.271 232.889 178.38 232.889H175.713L175.713 232.898C170.028 233.131 165.491 237.813 165.491 243.556C165.491 249.298 170.028 253.98 175.713 254.213L175.713 254.222H178.38C184.271 254.222 189.046 258.998 189.046 264.889C189.046 270.78 184.271 275.556 178.38 275.556H124.157C118.266 275.556 113.491 270.78 113.491 264.889C113.491 258.998 118.266 254.222 124.157 254.222H125.046C130.937 254.222 135.713 249.447 135.713 243.556Z" fill="#2255CA"/>
</g>
<mask id="mask4_0_5335" style="mask-type:alpha" maskUnits="userSpaceOnUse" x="4" y="0" width="400" height="400">
<circle cx="204" cy="200" r="200" fill="white"/>
</mask>
<g mask="url(#mask4_0_5335)">
<rect opacity="0.0775757" x="204" y="9.77777" width="191.426" height="380.444" fill="black"/>
</g>
</g>
<defs>
<filter id="filter0_d_0_5335" x="0" y="0" width="408" height="408" filterUnits="userSpaceOnUse" color-interpolation-filters="sRGB">
<feFlood flood-opacity="0" result="BackgroundImageFix"/>
<feColorMatrix in="SourceAlpha" type="matrix" values="0 0 0 0 0 0 0 0 0 0 0 0 0 0 0 0 0 0 127 0" result="hardAlpha"/>
<feOffset dy="4"/>
<feGaussianBlur stdDeviation="2"/>
<feComposite in2="hardAlpha" operator="out"/>
<feColorMatrix type="matrix" values="0 0 0 0 0 0 0 0 0 0 0 0 0 0 0 0 0 0 0.25 0"/>
<feBlend mode="normal" in2="BackgroundImageFix" result="effect1_dropShadow_0_5335"/>
<feBlend mode="normal" in="SourceGraphic" in2="effect1_dropShadow_0_5335" result="shape"/>
</filter>
</defs>
</svg>
