<svg width="400" height="400" viewBox="0 0 400 400" fill="none" xmlns="http://www.w3.org/2000/svg">
<circle cx="200" cy="200" r="200" fill="#497EFA"/>
<mask id="mask0_50_18" style="mask-type:alpha" maskUnits="userSpaceOnUse" x="0" y="0" width="400" height="400">
<circle cx="200" cy="200" r="200" fill="white"/>
</mask>
<g mask="url(#mask0_50_18)">
<path fill-rule="evenodd" clip-rule="evenodd" d="M13.491 147.556C19.3821 147.556 24.1577 152.331 24.1577 158.222C24.1577 164.113 19.3821 168.889 13.491 168.889H-125.176C-131.067 168.889 -135.842 164.113 -135.842 158.222C-135.842 152.331 -131.067 147.556 -125.176 147.556H13.491ZM209.046 147.556C214.937 147.556 219.713 152.331 219.713 158.222C219.713 164.113 214.937 168.889 209.046 168.889H139.713L139.713 168.898C134.028 169.131 129.491 173.813 129.491 179.556C129.491 185.298 134.028 189.98 139.713 190.213L139.713 190.222H281.935C287.826 190.222 292.602 194.998 292.602 200.889C292.602 206.78 287.826 211.556 281.935 211.556H53.4909C47.5999 211.556 42.8242 206.78 42.8242 200.889C42.8242 194.998 47.5999 190.222 53.4909 190.222H97.0464C102.937 190.222 107.713 185.447 107.713 179.556C107.713 173.665 102.937 168.889 97.0464 168.889H70.3798C64.4887 168.889 59.7131 164.113 59.7131 158.222C59.7131 152.331 64.4887 147.556 70.3798 147.556H209.046ZM26.8241 232.889C32.7151 232.889 37.4908 237.665 37.4908 243.556C37.4908 249.447 32.7151 254.222 26.8241 254.222H-38.0648C-43.9558 254.222 -48.7314 249.447 -48.7314 243.556C-48.7314 237.665 -43.9558 232.889 -38.0648 232.889H26.8241ZM281.935 232.889C287.826 232.889 292.602 237.665 292.602 243.556C292.602 249.447 287.826 254.222 281.935 254.222H217.047C211.156 254.222 206.38 249.447 206.38 243.556C206.38 237.665 211.156 232.889 217.047 232.889H281.935ZM516.602 243.556C516.602 237.665 511.826 232.889 505.935 232.889H358.38C352.489 232.889 347.713 237.665 347.713 243.556C347.713 249.447 352.489 254.222 358.38 254.222H505.935C511.826 254.222 516.602 249.447 516.602 243.556ZM347.713 168.889C353.604 168.889 358.38 173.665 358.38 179.556C358.38 185.447 353.604 190.222 347.713 190.222H339.713C333.822 190.222 329.046 194.998 329.046 200.889C329.046 206.78 333.822 211.556 339.713 211.556H568.158C574.049 211.556 578.824 206.78 578.824 200.889C578.824 194.998 574.049 190.222 568.158 190.222H390.38L390.38 190.213C384.695 189.98 380.158 185.298 380.158 179.556C380.158 173.813 384.695 169.131 390.38 168.898L390.38 168.889H411.713C417.604 168.889 422.38 164.113 422.38 158.222C422.38 152.331 417.604 147.556 411.713 147.556H273.046C267.155 147.556 262.38 152.331 262.38 158.222C262.38 164.113 267.155 168.889 273.046 168.889H347.713ZM612.602 158.222C612.602 152.331 607.826 147.556 601.935 147.556H463.269C457.378 147.556 452.602 152.331 452.602 158.222C452.602 164.113 457.378 168.889 463.269 168.889H601.935C607.826 168.889 612.602 164.113 612.602 158.222Z" fill="#356CEE"/>
</g>
<mask id="mask1_50_18" style="mask-type:alpha" maskUnits="userSpaceOnUse" x="0" y="0" width="400" height="400">
<circle cx="200" cy="200" r="200" fill="white"/>
</mask>
<g mask="url(#mask1_50_18)">
<path opacity="0.4" fill-rule="evenodd" clip-rule="evenodd" d="M13.491 19.5555C19.3821 19.5555 24.1577 24.3312 24.1577 30.2222C24.1577 36.1132 19.3821 40.8889 13.491 40.8889H-125.176C-131.067 40.8889 -135.842 36.1132 -135.842 30.2222C-135.842 24.3312 -131.067 19.5555 -125.176 19.5555H13.491ZM209.046 19.5555C214.937 19.5555 219.713 24.3312 219.713 30.2222C219.713 36.1132 214.937 40.8889 209.046 40.8889H139.713L139.713 40.898C134.028 41.1308 129.491 45.8133 129.491 51.5555C129.491 57.2978 134.028 61.9803 139.713 62.2131L139.713 62.2222H281.935C287.826 62.2222 292.602 66.9978 292.602 72.8889C292.602 78.7799 287.826 83.5555 281.935 83.5555H53.4909C47.5999 83.5555 42.8242 78.7799 42.8242 72.8889C42.8242 66.9978 47.5999 62.2222 53.4909 62.2222H97.0464C102.937 62.2222 107.713 57.4466 107.713 51.5555C107.713 45.6645 102.937 40.8889 97.0464 40.8889H70.3798C64.4887 40.8889 59.7131 36.1132 59.7131 30.2222C59.7131 24.3312 64.4887 19.5555 70.3798 19.5555H209.046ZM26.8241 104.889C32.7151 104.889 37.4908 109.665 37.4908 115.556C37.4908 121.447 32.7151 126.222 26.8241 126.222H-38.0648C-43.9558 126.222 -48.7314 121.447 -48.7314 115.556C-48.7314 109.665 -43.9558 104.889 -38.0648 104.889H26.8241ZM281.935 104.889C287.826 104.889 292.602 109.665 292.602 115.556C292.602 121.447 287.826 126.222 281.935 126.222H217.047C211.156 126.222 206.38 121.447 206.38 115.556C206.38 109.665 211.156 104.889 217.047 104.889H281.935ZM516.602 115.556C516.602 109.665 511.826 104.889 505.935 104.889H358.38C352.489 104.889 347.713 109.665 347.713 115.556C347.713 121.447 352.489 126.222 358.38 126.222H505.935C511.826 126.222 516.602 121.447 516.602 115.556ZM347.713 40.8889C353.604 40.8889 358.38 45.6645 358.38 51.5555C358.38 57.4466 353.604 62.2222 347.713 62.2222H339.713C333.822 62.2222 329.046 66.9978 329.046 72.8889C329.046 78.7799 333.822 83.5555 339.713 83.5555H568.158C574.049 83.5555 578.824 78.7799 578.824 72.8889C578.824 66.9978 574.049 62.2222 568.158 62.2222H390.38L390.38 62.2131C384.695 61.9803 380.158 57.2978 380.158 51.5555C380.158 45.8133 384.695 41.1308 390.38 40.898L390.38 40.8889H411.713C417.604 40.8889 422.38 36.1132 422.38 30.2222C422.38 24.3312 417.604 19.5555 411.713 19.5555H273.046C267.155 19.5555 262.38 24.3312 262.38 30.2222C262.38 36.1132 267.155 40.8889 273.046 40.8889H347.713ZM612.602 30.2222C612.602 24.3312 607.826 19.5555 601.935 19.5555H463.269C457.378 19.5555 452.602 24.3312 452.602 30.2222C452.602 36.1132 457.378 40.8889 463.269 40.8889H601.935C607.826 40.8889 612.602 36.1132 612.602 30.2222Z" fill="#356CEE"/>
</g>
<mask id="mask2_50_18" style="mask-type:alpha" maskUnits="userSpaceOnUse" x="0" y="0" width="400" height="400">
<circle cx="200" cy="200" r="200" fill="white"/>
</mask>
<g mask="url(#mask2_50_18)">
<path opacity="0.4" fill-rule="evenodd" clip-rule="evenodd" d="M13.491 296.889C19.3821 296.889 24.1577 301.665 24.1577 307.556C24.1577 313.447 19.3821 318.222 13.491 318.222H-125.176C-131.067 318.222 -135.842 313.447 -135.842 307.556C-135.842 301.665 -131.067 296.889 -125.176 296.889H13.491ZM209.046 296.889C214.937 296.889 219.713 301.665 219.713 307.556C219.713 313.447 214.937 318.222 209.046 318.222H139.713L139.713 318.231C134.028 318.464 129.491 323.147 129.491 328.889C129.491 334.631 134.028 339.314 139.713 339.547L139.713 339.556H281.935C287.826 339.556 292.602 344.331 292.602 350.222C292.602 356.113 287.826 360.889 281.935 360.889H53.4909C47.5999 360.889 42.8242 356.113 42.8242 350.222C42.8242 344.331 47.5999 339.556 53.4909 339.556H97.0464C102.937 339.556 107.713 334.78 107.713 328.889C107.713 322.998 102.937 318.222 97.0464 318.222H70.3798C64.4887 318.222 59.7131 313.447 59.7131 307.556C59.7131 301.665 64.4887 296.889 70.3798 296.889H209.046ZM26.8241 382.222C32.7151 382.222 37.4908 386.998 37.4908 392.889C37.4908 398.78 32.7151 403.556 26.8241 403.556H-38.0648C-43.9558 403.556 -48.7314 398.78 -48.7314 392.889C-48.7314 386.998 -43.9558 382.222 -38.0648 382.222H26.8241ZM281.935 382.222C287.826 382.222 292.602 386.998 292.602 392.889C292.602 398.78 287.826 403.556 281.935 403.556H217.047C211.156 403.556 206.38 398.78 206.38 392.889C206.38 386.998 211.156 382.222 217.047 382.222H281.935ZM516.602 392.889C516.602 386.998 511.826 382.222 505.935 382.222H358.38C352.489 382.222 347.713 386.998 347.713 392.889C347.713 398.78 352.489 403.556 358.38 403.556H505.935C511.826 403.556 516.602 398.78 516.602 392.889ZM347.713 318.222C353.604 318.222 358.38 322.998 358.38 328.889C358.38 334.78 353.604 339.556 347.713 339.556H339.713C333.822 339.556 329.046 344.331 329.046 350.222C329.046 356.113 333.822 360.889 339.713 360.889H568.158C574.049 360.889 578.824 356.113 578.824 350.222C578.824 344.331 574.049 339.556 568.158 339.556H390.38L390.38 339.547C384.695 339.314 380.158 334.631 380.158 328.889C380.158 323.147 384.695 318.464 390.38 318.231L390.38 318.222H411.713C417.604 318.222 422.38 313.447 422.38 307.556C422.38 301.665 417.604 296.889 411.713 296.889H273.046C267.155 296.889 262.38 301.665 262.38 307.556C262.38 313.447 267.155 318.222 273.046 318.222H347.713ZM612.602 307.556C612.602 301.665 607.826 296.889 601.935 296.889H463.269C457.378 296.889 452.602 301.665 452.602 307.556C452.602 313.447 457.378 318.222 463.269 318.222H601.935C607.826 318.222 612.602 313.447 612.602 307.556Z" fill="#356CEE"/>
</g>
<mask id="mask3_50_18" style="mask-type:alpha" maskUnits="userSpaceOnUse" x="0" y="0" width="400" height="400">
<circle cx="200" cy="200" r="200" fill="white"/>
</mask>
<g mask="url(#mask3_50_18)">
<path d="M131.713 243.556C131.713 237.665 126.937 232.889 121.046 232.889H104.157C98.2664 232.889 93.4907 228.113 93.4907 222.222C93.4907 216.331 98.2664 211.556 104.157 211.556H174.38C180.271 211.556 185.046 216.331 185.046 222.222C185.046 228.113 180.271 232.889 174.38 232.889H171.713L171.713 232.898C166.028 233.131 161.491 237.813 161.491 243.556C161.491 249.298 166.028 253.98 171.713 254.213L171.713 254.222H174.38C180.271 254.222 185.046 258.998 185.046 264.889C185.046 270.78 180.271 275.556 174.38 275.556H120.157C114.266 275.556 109.491 270.78 109.491 264.889C109.491 258.998 114.266 254.222 120.157 254.222H121.046C126.937 254.222 131.713 249.447 131.713 243.556Z" fill="#2255CA"/>
</g>
<mask id="mask4_50_18" style="mask-type:alpha" maskUnits="userSpaceOnUse" x="0" y="0" width="400" height="400">
<circle cx="200" cy="200" r="200" fill="white"/>
</mask>
<g mask="url(#mask4_50_18)">
<rect opacity="0.0775757" x="200" y="9.77783" width="191.426" height="380.444" fill="black"/>
</g>
<path fill-rule="evenodd" clip-rule="evenodd" d="M200 393.778C307.021 393.778 393.778 307.02 393.778 200C393.778 92.9794 307.021 6.22217 200 6.22217V393.778Z" fill="#94D5FF"/>
<mask id="mask5_50_18" style="mask-type:alpha" maskUnits="userSpaceOnUse" x="200" y="6" width="194" height="388">
<path fill-rule="evenodd" clip-rule="evenodd" d="M200 393.778C307.021 393.778 393.778 307.02 393.778 200C393.778 92.9794 307.021 6.22217 200 6.22217V393.778Z" fill="white"/>
</mask>
<g mask="url(#mask5_50_18)">
<circle cx="200" cy="200" r="187.556" fill="#2959C9"/>
<circle cx="200" cy="200" r="130.667" fill="#6593FF"/>
<circle cx="200" cy="200" r="72.8889" fill="#4A7AE9"/>
<circle cx="200" cy="200" r="28.4444" fill="#042570"/>
</g>
</svg>
