<svg width="401" height="401" viewBox="0 0 401 401" fill="none" xmlns="http://www.w3.org/2000/svg">
<path fill-rule="evenodd" clip-rule="evenodd" d="M32.3793 32.3777C32.447 32.3049 32.516 32.2334 32.5863 32.1631C49.8238 14.9256 139.272 76.4266 232.375 169.529C325.478 262.632 386.979 352.081 369.741 369.318C369.671 369.388 369.599 369.457 369.527 369.525L342.189 342.188C342.262 342.12 342.334 342.052 342.405 341.981C356.847 327.539 305.319 252.596 227.314 174.591C149.309 96.5856 74.3655 45.0578 59.9233 59.5C59.853 59.5704 59.7842 59.6422 59.717 59.7154L32.3793 32.3777ZM66.3457 66.3441C80.0895 52.6011 151.401 101.63 225.625 175.855C299.849 250.079 348.879 321.39 335.136 335.134L324.841 324.839C324.914 324.772 324.986 324.704 325.057 324.633C337.752 311.938 292.575 246.178 224.15 177.754C155.726 109.33 89.9661 64.1525 77.2709 76.8477C77.2006 76.918 77.132 76.99 77.0652 77.0636L66.3457 66.3441Z" fill="#B87D43"/>
<circle cx="200.953" cy="191.344" r="124.907" fill="#FCCB6B"/>
<mask id="mask0_49_8" style="mask-type:alpha" maskUnits="userSpaceOnUse" x="76" y="66" width="250" height="251">
<circle cx="200.953" cy="191.344" r="124.907" fill="white"/>
</mask>
<g mask="url(#mask0_49_8)">
<path fill-rule="evenodd" clip-rule="evenodd" d="M33.5853 30.6264C36.3995 27.8122 40.9622 27.8122 43.7764 30.6264L110.018 96.8684C112.833 99.6826 112.833 104.245 110.018 107.06C107.204 109.874 102.642 109.874 99.8274 107.06L33.5853 40.8175C30.7711 38.0033 30.7711 33.4406 33.5853 30.6264ZM324.88 311.73C322.066 308.916 317.504 308.916 314.689 311.73C311.875 314.545 311.875 319.107 314.689 321.922L380.931 388.164C383.746 390.978 388.308 390.978 391.122 388.164C393.937 385.349 393.937 380.787 391.122 377.972L324.88 311.73ZM231.462 218.312C228.648 215.498 224.085 215.498 221.271 218.312C218.457 221.126 218.457 225.689 221.271 228.503L254.392 261.624L254.388 261.628C256.992 264.456 256.923 268.86 254.18 271.603C251.437 274.346 247.032 274.415 244.205 271.811L244.201 271.815L176.26 203.875C173.446 201.061 168.884 201.061 166.069 203.875C163.255 206.689 163.255 211.252 166.069 214.066L275.199 323.195C278.013 326.01 282.576 326.01 285.39 323.195C288.204 320.381 288.204 315.819 285.39 313.004L264.583 292.198C261.769 289.383 261.769 284.821 264.583 282.006C267.397 279.192 271.96 279.192 274.774 282.006L287.513 294.745C290.327 297.56 294.89 297.56 297.704 294.745C300.518 291.931 300.518 287.368 297.704 284.554L231.462 218.312ZM38.6808 117.251C41.495 114.436 46.0577 114.436 48.8719 117.251L119.36 187.739C122.174 190.553 122.174 195.116 119.36 197.93C116.546 200.744 111.983 200.744 109.169 197.93L38.6808 127.442C35.8666 124.628 35.8666 120.065 38.6808 117.251ZM277.747 346.125C274.932 343.311 270.37 343.311 267.556 346.125C264.741 348.94 264.741 353.502 267.556 356.316L298.553 387.314C301.368 390.129 305.93 390.129 308.745 387.314C311.559 384.5 311.559 379.937 308.745 377.123L277.747 346.125ZM155.878 224.257C153.064 221.443 148.501 221.443 145.687 224.257C142.873 227.071 142.873 231.634 145.687 234.448L176.685 265.446C179.499 268.26 184.062 268.26 186.876 265.446C189.69 262.632 189.69 258.069 186.876 255.255L155.878 224.257ZM155.029 162.261C152.215 159.447 147.652 159.447 144.838 162.261C142.024 165.075 142.024 169.638 144.838 172.452L148.66 176.274C151.474 179.088 151.474 183.651 148.66 186.465C145.845 189.279 141.283 189.279 138.468 186.465L29.3389 77.3356C26.5247 74.5214 26.5247 69.9587 29.3389 67.1445C32.1531 64.3303 36.7158 64.3303 39.53 67.1445L124.456 152.07L124.46 152.066C127.287 154.67 131.691 154.601 134.434 151.858C137.178 149.115 137.247 144.71 134.642 141.883L134.647 141.879L124.456 131.688C121.642 128.874 121.642 124.311 124.456 121.497C127.27 118.683 131.833 118.683 134.647 121.497L200.889 187.739C203.703 190.553 203.703 195.116 200.889 197.93C198.075 200.744 193.512 200.744 190.698 197.93L155.029 162.261Z" fill="#ECB55A"/>
</g>
<mask id="mask1_49_8" style="mask-type:alpha" maskUnits="userSpaceOnUse" x="76" y="66" width="250" height="251">
<circle cx="200.953" cy="191.344" r="124.907" fill="white"/>
</mask>
<g mask="url(#mask1_49_8)">
<rect opacity="0.0775757" x="200.953" y="66.4369" width="125.561" height="249.814" fill="black"/>
</g>
<path fill-rule="evenodd" clip-rule="evenodd" d="M200.953 312.648C267.915 312.648 322.204 258.391 322.257 191.441V191.247C322.204 124.297 267.915 70.04 200.953 70.04C200.953 70.04 200.953 70.04 200.953 70.04L200.953 312.648Z" fill="#9C4925"/>
<mask id="mask2_49_8" style="mask-type:alpha" maskUnits="userSpaceOnUse" x="200" y="70" width="123" height="243">
<path fill-rule="evenodd" clip-rule="evenodd" d="M200.953 312.648C267.915 312.648 322.204 258.391 322.257 191.441V191.247C322.204 124.297 267.915 70.04 200.953 70.04C200.953 70.04 200.953 70.04 200.953 70.04L200.953 312.648Z" fill="white"/>
</mask>
<g mask="url(#mask2_49_8)">
<circle cx="201.553" cy="191.344" r="68.4587" fill="#E09B7F"/>
<circle cx="201.253" cy="191.644" r="20.7178" fill="#FFEECC"/>
</g>
<path fill-rule="evenodd" clip-rule="evenodd" d="M32.3785 32.3784C32.3058 32.4461 32.2343 32.5151 32.164 32.5854C14.9265 49.8229 76.4274 139.271 169.53 232.374C262.633 325.477 352.081 386.978 369.319 369.74C369.389 369.67 369.458 369.599 369.526 369.526L342.188 342.188C342.121 342.261 342.052 342.333 341.982 342.404C327.54 356.846 252.596 305.318 174.591 227.313C96.5864 149.308 45.0585 74.3646 59.5008 59.9223C59.5711 59.852 59.6429 59.7832 59.7161 59.716L32.3785 32.3784ZM66.345 66.3449C52.6017 80.0884 101.631 151.4 175.855 225.624C250.08 299.849 321.391 348.878 335.135 335.135L324.84 324.84C324.773 324.913 324.704 324.985 324.634 325.056C311.939 337.751 246.179 292.574 177.755 224.15C109.33 155.725 64.1533 89.9653 76.8484 77.2701C76.9188 77.1997 76.9908 77.1311 77.0644 77.0643L66.345 66.3449Z" fill="#B87D43"/>
</svg>
