<svg width="400" height="400" viewBox="0 0 400 400" fill="none" xmlns="http://www.w3.org/2000/svg">
<circle cx="200" cy="200" r="200" fill="#65F0D5"/>
<mask id="mask0_0_6360" style="mask-type:alpha" maskUnits="userSpaceOnUse" x="0" y="0" width="400" height="400">
<circle cx="200" cy="200" r="200" fill="white"/>
</mask>
<g mask="url(#mask0_0_6360)">
<path fill-rule="evenodd" clip-rule="evenodd" d="M388.751 -131.004C388.751 -125.216 384.059 -120.524 378.271 -120.524C372.482 -120.524 367.79 -125.216 367.79 -131.004V-267.249C367.79 -273.037 372.482 -277.729 378.271 -277.729C384.059 -277.729 388.751 -273.037 388.751 -267.249V-131.004ZM388.751 61.1354C388.751 66.9235 384.059 71.6157 378.271 71.6157C372.482 71.6157 367.79 66.9235 367.79 61.1354V-6.98691L367.781 -6.98657C367.553 -12.5724 362.952 -17.0306 357.31 -17.0306C351.668 -17.0306 347.067 -12.5724 346.838 -6.98657L346.83 -6.98691V132.751C346.83 138.539 342.137 143.231 336.349 143.231C330.561 143.231 325.869 138.539 325.869 132.751V-91.7031C325.869 -97.4912 330.561 -102.183 336.349 -102.183C342.137 -102.183 346.83 -97.4912 346.83 -91.7031V-48.9083C346.83 -43.1202 351.522 -38.4279 357.31 -38.4279C363.098 -38.4279 367.79 -43.1202 367.79 -48.9083V-75.1092C367.79 -80.8973 372.482 -85.5895 378.271 -85.5895C384.059 -85.5895 388.751 -80.8973 388.751 -75.1092V61.1354ZM304.908 -117.904C304.908 -112.116 300.216 -107.424 294.428 -107.424C288.64 -107.424 283.948 -112.116 283.948 -117.904V-181.659C283.948 -187.448 288.64 -192.14 294.428 -192.14C300.216 -192.14 304.908 -187.448 304.908 -181.659V-117.904ZM304.908 132.751C304.908 138.539 300.216 143.231 294.428 143.231C288.64 143.231 283.948 138.539 283.948 132.751V68.9956C283.948 63.2075 288.64 58.5153 294.428 58.5153C300.216 58.5153 304.908 63.2075 304.908 68.9956V132.751ZM294.428 363.319C300.216 363.319 304.908 358.627 304.908 352.838L304.908 207.86C304.908 202.072 300.216 197.38 294.428 197.38C288.64 197.38 283.948 202.072 283.948 207.86L283.948 352.838C283.948 358.627 288.64 363.319 294.428 363.319ZM367.79 197.38C367.79 203.168 363.098 207.86 357.31 207.86C351.522 207.86 346.83 203.168 346.83 197.38V189.52C346.83 183.732 342.137 179.039 336.349 179.039C330.561 179.039 325.869 183.732 325.869 189.52L325.869 413.974C325.869 419.762 330.561 424.454 336.349 424.454C342.137 424.454 346.83 419.762 346.83 413.974L346.83 239.301L346.838 239.302C347.067 233.716 351.668 229.258 357.31 229.258C362.952 229.258 367.553 233.716 367.781 239.302L367.79 239.301V260.262C367.79 266.05 372.482 270.742 378.271 270.742C384.059 270.742 388.751 266.05 388.751 260.262L388.751 124.017C388.751 118.229 384.059 113.537 378.271 113.537C372.482 113.537 367.79 118.229 367.79 124.017V197.38ZM378.271 457.642C384.059 457.642 388.751 452.95 388.751 447.162V310.917C388.751 305.129 384.059 300.437 378.271 300.437C372.482 300.437 367.79 305.129 367.79 310.917V447.162C367.79 452.95 372.482 457.642 378.271 457.642Z" fill="#49CBC2"/>
</g>
<mask id="mask1_0_6360" style="mask-type:alpha" maskUnits="userSpaceOnUse" x="0" y="0" width="400" height="400">
<circle cx="200" cy="200" r="200" fill="white"/>
</mask>
<g mask="url(#mask1_0_6360)">
<path fill-rule="evenodd" clip-rule="evenodd" d="M158.184 -192.14C158.184 -186.352 162.876 -181.659 168.664 -181.659C174.452 -181.659 179.144 -186.352 179.144 -192.14V-328.384C179.144 -334.172 174.452 -338.865 168.664 -338.865C162.876 -338.865 158.184 -334.172 158.184 -328.384V-192.14ZM158.184 0C158.184 5.78815 162.876 10.4803 168.664 10.4803C174.452 10.4803 179.144 5.78815 179.144 0V-68.1223L179.153 -68.1219C179.382 -73.7077 183.983 -78.1659 189.625 -78.1659C195.267 -78.1659 199.867 -73.7077 200.096 -68.1219L200.105 -68.1223L200.105 71.6157C200.105 77.4039 204.797 82.0961 210.585 82.0961C216.373 82.0961 221.066 77.4039 221.066 71.6157L221.066 -152.838C221.066 -158.627 216.373 -163.319 210.585 -163.319C204.797 -163.319 200.105 -158.627 200.105 -152.838V-110.044C200.105 -104.256 195.413 -99.5633 189.625 -99.5633C183.837 -99.5633 179.144 -104.256 179.144 -110.044V-136.245C179.144 -142.033 174.452 -146.725 168.664 -146.725C162.876 -146.725 158.184 -142.033 158.184 -136.245L158.184 0ZM242.026 -179.039C242.026 -173.251 246.719 -168.559 252.507 -168.559C258.295 -168.559 262.987 -173.251 262.987 -179.039V-242.795C262.987 -248.583 258.295 -253.275 252.507 -253.275C246.719 -253.275 242.026 -248.583 242.026 -242.795V-179.039ZM242.026 71.6157C242.026 77.4039 246.719 82.0961 252.507 82.0961C258.295 82.0961 262.987 77.4039 262.987 71.6157V7.86026C262.987 2.07211 258.295 -2.62009 252.507 -2.62009C246.719 -2.62009 242.026 2.07211 242.026 7.86026L242.026 71.6157ZM252.507 302.183C246.719 302.183 242.026 297.491 242.026 291.703L242.026 146.725C242.026 140.937 246.719 136.245 252.507 136.245C258.295 136.245 262.987 140.937 262.987 146.725L262.987 291.703C262.987 297.491 258.295 302.183 252.507 302.183ZM179.144 136.245C179.144 142.033 183.837 146.725 189.625 146.725C195.413 146.725 200.105 142.033 200.105 136.245V128.384C200.105 122.596 204.797 117.904 210.585 117.904C216.373 117.904 221.066 122.596 221.066 128.384L221.066 352.838C221.066 358.627 216.373 363.319 210.585 363.319C204.797 363.319 200.105 358.627 200.105 352.838L200.105 178.166L200.096 178.166C199.867 172.58 195.267 168.122 189.625 168.122C183.983 168.122 179.382 172.58 179.153 178.166L179.144 178.166V199.127C179.144 204.915 174.452 209.607 168.664 209.607C162.876 209.607 158.184 204.915 158.184 199.127V62.8821C158.184 57.0939 162.876 52.4017 168.664 52.4017C174.452 52.4017 179.144 57.0939 179.144 62.8821V136.245ZM168.664 396.507C162.876 396.507 158.184 391.814 158.184 386.026L158.184 249.782C158.184 243.994 162.876 239.301 168.664 239.301C174.452 239.301 179.144 243.994 179.144 249.782L179.144 386.026C179.144 391.814 174.452 396.507 168.664 396.507Z" fill="#50DECD"/>
</g>
<mask id="mask2_0_6360" style="mask-type:alpha" maskUnits="userSpaceOnUse" x="0" y="0" width="400" height="400">
<circle cx="200" cy="200" r="200" fill="white"/>
</mask>
<g mask="url(#mask2_0_6360)">
<path fill-rule="evenodd" clip-rule="evenodd" d="M137.223 -220.961C137.223 -215.173 132.53 -210.48 126.742 -210.48C120.954 -210.48 116.262 -215.173 116.262 -220.961L116.262 -357.205C116.262 -362.993 120.954 -367.686 126.742 -367.686C132.53 -367.686 137.223 -362.993 137.223 -357.205V-220.961ZM137.223 -28.821C137.223 -23.0328 132.53 -18.3406 126.742 -18.3406C120.954 -18.3406 116.262 -23.0328 116.262 -28.821L116.262 -96.9432L116.253 -96.9429C116.024 -102.529 111.424 -106.987 105.782 -106.987C100.14 -106.987 95.5389 -102.529 95.3102 -96.9429L95.3013 -96.9432L95.3013 42.7947C95.3013 48.5829 90.609 53.2751 84.8209 53.2751C79.0328 53.2751 74.3406 48.5829 74.3406 42.7947L74.3406 -181.659C74.3406 -187.448 79.0328 -192.14 84.8209 -192.14C90.609 -192.14 95.3013 -187.448 95.3013 -181.659V-138.865C95.3013 -133.076 99.9935 -128.384 105.782 -128.384C111.57 -128.384 116.262 -133.076 116.262 -138.865V-165.066C116.262 -170.854 120.954 -175.546 126.742 -175.546C132.53 -175.546 137.223 -170.854 137.223 -165.066L137.223 -28.821ZM53.3799 -207.86C53.3799 -202.072 48.6877 -197.38 42.8995 -197.38C37.1114 -197.38 32.4192 -202.072 32.4192 -207.86L32.4192 -271.616C32.4192 -277.404 37.1114 -282.096 42.8995 -282.096C48.6877 -282.096 53.3799 -277.404 53.3799 -271.616L53.3799 -207.86ZM53.3799 42.7948C53.3799 48.5829 48.6877 53.2751 42.8995 53.2751C37.1114 53.2751 32.4192 48.5829 32.4192 42.7948L32.4192 -20.9607C32.4192 -26.7488 37.1114 -31.441 42.8995 -31.441C48.6877 -31.441 53.3799 -26.7488 53.3799 -20.9607L53.3799 42.7948ZM42.8995 273.362C48.6877 273.362 53.3799 268.67 53.3799 262.882L53.3799 117.904C53.3799 112.116 48.6877 107.424 42.8995 107.424C37.1114 107.424 32.4192 112.116 32.4192 117.904L32.4192 262.882C32.4192 268.67 37.1114 273.362 42.8995 273.362ZM116.262 107.424C116.262 113.212 111.57 117.904 105.782 117.904C99.9935 117.904 95.3013 113.212 95.3013 107.424V99.5633C95.3013 93.7752 90.609 89.0829 84.8209 89.0829C79.0328 89.0829 74.3406 93.7752 74.3406 99.5633L74.3406 324.017C74.3406 329.806 79.0328 334.498 84.8209 334.498C90.609 334.498 95.3013 329.806 95.3013 324.017L95.3013 149.345L95.3102 149.345C95.5389 143.76 100.14 139.301 105.782 139.301C111.424 139.301 116.024 143.76 116.253 149.345L116.262 149.345V170.306C116.262 176.094 120.954 180.786 126.742 180.786C132.53 180.786 137.223 176.094 137.223 170.306V34.0611C137.223 28.273 132.53 23.5808 126.742 23.5808C120.954 23.5808 116.262 28.273 116.262 34.0611V107.424ZM126.742 367.686C132.53 367.686 137.223 362.993 137.223 357.205L137.223 220.961C137.223 215.173 132.53 210.48 126.742 210.48C120.954 210.48 116.262 215.173 116.262 220.961L116.262 357.205C116.262 362.993 120.954 367.686 126.742 367.686Z" fill="#77FFF5"/>
</g>
<mask id="mask3_0_6360" style="mask-type:alpha" maskUnits="userSpaceOnUse" x="0" y="0" width="400" height="400">
<circle cx="200" cy="200" r="200" fill="white"/>
</mask>
<g mask="url(#mask3_0_6360)">
<rect opacity="0.0775757" x="200" width="200" height="400" fill="black"/>
</g>
</svg>
